<svg xmlns="http://www.w3.org/2000/svg" viewBox="0 0 760 592" width="760" height="592" role="img" aria-label="Hello world through one PSR-15 handler">
<style>text{font-family:-apple-system, BlinkMacSystemFont, 'Segoe UI', Helvetica, Arial, sans-serif;font-variant-numeric:tabular-nums}</style>
<text x="0" y="22" font-size="17" font-weight="600" fill="#E6EEF8">Hello world through one PSR-15 handler</text>
<text x="0" y="44" font-size="12.5" fill="#93A4B8">Requests per second, 2 and 8 workers, PHP 8.5.11 with opcache and JIT, Ryzen 9 9950X3D, loopback</text>
<line x1="170.0" y1="60" x2="170.0" y2="532" stroke="#243246" stroke-width="1"/>
<text x="170.0" y="548" font-size="11" text-anchor="middle" fill="#93A4B8">0</text>
<line x1="266.0" y1="60" x2="266.0" y2="532" stroke="#243246" stroke-width="1"/>
<text x="266.0" y="548" font-size="11" text-anchor="middle" fill="#93A4B8">250k</text>
<line x1="362.0" y1="60" x2="362.0" y2="532" stroke="#243246" stroke-width="1"/>
<text x="362.0" y="548" font-size="11" text-anchor="middle" fill="#93A4B8">500k</text>
<line x1="458.0" y1="60" x2="458.0" y2="532" stroke="#243246" stroke-width="1"/>
<text x="458.0" y="548" font-size="11" text-anchor="middle" fill="#93A4B8">750k</text>
<line x1="554.0" y1="60" x2="554.0" y2="532" stroke="#243246" stroke-width="1"/>
<text x="554.0" y="548" font-size="11" text-anchor="middle" fill="#93A4B8">1M</text>
<line x1="650.0" y1="60" x2="650.0" y2="532" stroke="#243246" stroke-width="1"/>
<text x="650.0" y="548" font-size="11" text-anchor="middle" fill="#93A4B8">1.25M</text>
<line x1="170" y1="60" x2="170" y2="532" stroke="#3D4F66" stroke-width="1"/>
<text x="0" y="79" font-size="13" font-weight="600" fill="#E6EEF8">8 workers</text>
<text x="160" y="101.5" font-size="12.5" font-weight="400" text-anchor="end" fill="#E6EEF8">Swoole 6.2</text>
<rect x="170" y="86" width="387.6" height="22" rx="3" fill="#46586E"/>
<text x="564.6" y="101.5" font-size="12" fill="#E6EEF8">1.01M</text>
<text x="160" y="130.5" font-size="12.5" font-weight="400" text-anchor="end" fill="#E6EEF8">OpenSwoole 26.2</text>
<rect x="170" y="115" width="370.9" height="22" rx="3" fill="#46586E"/>
<text x="547.9" y="130.5" font-size="12" fill="#E6EEF8">966k</text>
<text x="160" y="159.5" font-size="12.5" font-weight="600" text-anchor="end" fill="#E6EEF8">swerve</text>
<rect x="170" y="144" width="330.1" height="22" rx="3" fill="#8FB5E0"/>
<text x="507.1" y="159.5" font-size="12" fill="#E6EEF8">860k</text>
<text x="160" y="188.5" font-size="12.5" font-weight="600" text-anchor="end" fill="#E6EEF8">swerve + phasync-ext</text>
<rect x="170" y="173" width="324.8" height="22" rx="3" fill="#5E8DC2"/>
<text x="501.8" y="188.5" font-size="12" fill="#E6EEF8">846k</text>
<text x="160" y="217.5" font-size="12.5" font-weight="400" text-anchor="end" fill="#E6EEF8">ReactPHP 1.11</text>
<rect x="170" y="202" width="237.1" height="22" rx="3" fill="#46586E"/>
<text x="414.1" y="217.5" font-size="12" fill="#E6EEF8">617k</text>
<text x="160" y="246.5" font-size="12.5" font-weight="400" text-anchor="end" fill="#E6EEF8">FrankenPHP 1.12</text>
<rect x="170" y="231" width="175.4" height="22" rx="3" fill="#46586E"/>
<text x="352.4" y="246.5" font-size="12" fill="#E6EEF8">457k</text>
<text x="160" y="275.5" font-size="12.5" font-weight="400" text-anchor="end" fill="#E6EEF8">RoadRunner 2025.1</text>
<rect x="170" y="260" width="55.2" height="22" rx="3" fill="#46586E"/>
<text x="232.2" y="275.5" font-size="12" fill="#E6EEF8">144k</text>
<text x="0" y="322" font-size="13" font-weight="600" fill="#E6EEF8">2 workers</text>
<text x="160" y="344.5" font-size="12.5" font-weight="400" text-anchor="end" fill="#E6EEF8">Swoole 6.2</text>
<rect x="170" y="329" width="98.2" height="22" rx="3" fill="#46586E"/>
<text x="275.2" y="344.5" font-size="12" fill="#E6EEF8">256k</text>
<text x="160" y="373.5" font-size="12.5" font-weight="400" text-anchor="end" fill="#E6EEF8">OpenSwoole 26.2</text>
<rect x="170" y="358" width="94.3" height="22" rx="3" fill="#46586E"/>
<text x="271.3" y="373.5" font-size="12" fill="#E6EEF8">245k</text>
<text x="160" y="402.5" font-size="12.5" font-weight="600" text-anchor="end" fill="#E6EEF8">swerve</text>
<rect x="170" y="387" width="84.1" height="22" rx="3" fill="#8FB5E0"/>
<text x="261.1" y="402.5" font-size="12" fill="#E6EEF8">219k</text>
<text x="160" y="431.5" font-size="12.5" font-weight="600" text-anchor="end" fill="#E6EEF8">swerve + phasync-ext</text>
<rect x="170" y="416" width="82.7" height="22" rx="3" fill="#5E8DC2"/>
<text x="259.7" y="431.5" font-size="12" fill="#E6EEF8">215k</text>
<text x="160" y="460.5" font-size="12.5" font-weight="400" text-anchor="end" fill="#E6EEF8">ReactPHP 1.11</text>
<rect x="170" y="445" width="61.4" height="22" rx="3" fill="#46586E"/>
<text x="238.4" y="460.5" font-size="12" fill="#E6EEF8">160k</text>
<text x="160" y="489.5" font-size="12.5" font-weight="400" text-anchor="end" fill="#E6EEF8">FrankenPHP 1.12</text>
<rect x="170" y="474" width="92.7" height="22" rx="3" fill="#46586E"/>
<text x="269.7" y="489.5" font-size="12" fill="#E6EEF8">241k</text>
<text x="160" y="518.5" font-size="12.5" font-weight="400" text-anchor="end" fill="#E6EEF8">RoadRunner 2025.1</text>
<rect x="170" y="503" width="31.7" height="22" rx="3" fill="#46586E"/>
<text x="208.7" y="518.5" font-size="12" fill="#E6EEF8">82.6k</text>
<text x="0" y="582" font-size="11" fill="#93A4B8">Servers pinned to one CCD, wrk to the other. FrankenPHP and RoadRunner with GOGC=400, their better result. benchmarks/servers</text>
</svg>
